<svg width="52" height="52" viewBox="0 0 67 67" fill="none" xmlns="http://www.w3.org/2000/svg">
	<path d="M27.9167 33.5C34.0838 33.5 39.0833 28.5005 39.0833 22.3334C39.0833 16.1662 34.0838 11.1667 27.9167 11.1667C21.7495 11.1667 16.75 16.1662 16.75 22.3334C16.75 28.5005 21.7495 33.5 27.9167 33.5Z" stroke="#58a9a5" stroke-width="4.79" stroke-linecap="round"/>
	<path d="M44.0959 57.0815C43.1415 53.5199 41.0385 50.3726 38.1134 48.1281C35.188 45.8833 31.6038 44.6667 27.9165 44.6667C24.2293 44.6667 20.6451 45.8833 17.7198 48.1281C14.7945 50.3726 12.6916 53.5199 11.7373 57.0815" stroke="#58a9a5" stroke-width="4.79" stroke-linecap="round"/>
	<path d="M53.0417 27.9167V44.6667" stroke="#58a9a5" stroke-width="3.79" stroke-linecap="round"/>
	<path d="M61.4167 36.2917H44.6667" stroke="#58a9a5" stroke-width="3.79" stroke-linecap="round"/>
</svg>